{
    "asset" : {
        "generator" : "Khronos glTF Blender I/O v1.6.16",
        "version" : "2.0"
    },
    "scene" : 0,
    "scenes" : [
        {
            "extras" : {
                "glTF2ExportSettings" : {
                    "export_apply" : 1,
                    "export_draco_mesh_compression_enable" : 0,
                    "export_extras" : 1,
                    "export_format" : "GLTF_EMBEDDED",
                    "export_image_format" : "JPEG",
                    "export_morph" : 0,
                    "export_skins" : 0,
                    "use_active_collection" : 1,
                    "use_mesh_edges" : 1,
                    "use_mesh_vertices" : 1,
                    "use_renderable" : 0,
                    "use_selection" : 0,
                    "use_visible" : 0
                }
            },
            "name" : "Scene",
            "nodes" : [
                0,
                1,
                2,
                3
            ]
        }
    ],
    "nodes" : [
        {
            "mesh" : 0,
            "name" : "Sphere.Bottom",
            "scale" : [
                1.2266067266464233,
                4.242007732391357,
                0.30851009488105774
            ]
        },
        {
            "mesh" : 1,
            "name" : "Sphere..Topp",
            "scale" : [
                1.2266067266464233,
                4.2420125007629395,
                0.30851009488105774
            ]
        },
        {
            "mesh" : 2,
            "name" : "Cone",
            "rotation" : [
                0.7071013450622559,
                0.002785278717055917,
                -0.7071013450622559,
                0.002785278717055917
            ],
            "scale" : [
                1,
                1.2000000476837158,
                1
            ],
            "translation" : [
                0,
                3.919999599456787,
                0
            ]
        },
        {
            "mesh" : 3,
            "name" : "Coneb",
            "scale" : [
                1,
                1.2000000476837158,
                1
            ],
            "translation" : [
                0,
                -3.9200000762939453,
                0
            ]
        }
    ],
    "animations" : [
        {
            "channels" : [
                {
                    "sampler" : 0,
                    "target" : {
                        "node" : 0,
                        "path" : "translation"
                    }
                },
                {
                    "sampler" : 1,
                    "target" : {
                        "node" : 0,
                        "path" : "scale"
                    }
                },
                {
                    "sampler" : 2,
                    "target" : {
                        "node" : 0,
                        "path" : "rotation"
                    }
                }
            ],
            "name" : "Sphere.BottomAction",
            "samplers" : [
                {
                    "input" : 18,
                    "interpolation" : "LINEAR",
                    "output" : 19
                },
                {
                    "input" : 20,
                    "interpolation" : "LINEAR",
                    "output" : 21
                },
                {
                    "input" : 22,
                    "interpolation" : "LINEAR",
                    "output" : 23
                }
            ]
        },
        {
            "channels" : [
                {
                    "sampler" : 0,
                    "target" : {
                        "node" : 1,
                        "path" : "translation"
                    }
                },
                {
                    "sampler" : 1,
                    "target" : {
                        "node" : 1,
                        "path" : "rotation"
                    }
                },
                {
                    "sampler" : 2,
                    "target" : {
                        "node" : 1,
                        "path" : "scale"
                    }
                }
            ],
            "name" : "Sphere..ToppAction.001",
            "samplers" : [
                {
                    "input" : 18,
                    "interpolation" : "LINEAR",
                    "output" : 24
                },
                {
                    "input" : 22,
                    "interpolation" : "LINEAR",
                    "output" : 25
                },
                {
                    "input" : 18,
                    "interpolation" : "LINEAR",
                    "output" : 26
                }
            ]
        }
    ],
    "materials" : [
        {
            "doubleSided" : true,
            "name" : "WaTer",
            "pbrMetallicRoughness" : {
                "baseColorFactor" : [
                    0.32434800267219543,
                    0.7105652093887329,
                    0.906000018119812,
                    1
                ],
                "metallicFactor" : 0.8999999761581421,
                "roughnessFactor" : 0.18199999630451202
            }
        },
        {
            "doubleSided" : true,
            "name" : "Light sabre",
            "pbrMetallicRoughness" : {
                "baseColorFactor" : [
                    0.7454043626785278,
                    0.8227859139442444,
                    0.7991029620170593,
                    0.42397820949554443
                ],
                "metallicFactor" : 0.1634877324104309,
                "roughnessFactor" : 0.5
            }
        }
    ],
    "meshes" : [
        {
            "name" : "Sphere.001",
            "primitives" : [
                {
                    "attributes" : {
                        "POSITION" : 0,
                        "NORMAL" : 1,
                        "TEXCOORD_0" : 2
                    },
                    "indices" : 3,
                    "material" : 0
                },
                {
                    "attributes" : {
                        "POSITION" : 4
                    },
                    "indices" : 5,
                    "material" : 0,
                    "mode" : 1
                },
                {
                    "attributes" : {
                        "POSITION" : 6
                    },
                    "material" : 0,
                    "mode" : 0
                }
            ]
        },
        {
            "name" : "Sphere.002",
            "primitives" : [
                {
                    "attributes" : {
                        "POSITION" : 7,
                        "NORMAL" : 8,
                        "TEXCOORD_0" : 9
                    },
                    "indices" : 10,
                    "material" : 0
                }
            ]
        },
        {
            "name" : "Cone.003",
            "primitives" : [
                {
                    "attributes" : {
                        "POSITION" : 11,
                        "NORMAL" : 12,
                        "TEXCOORD_0" : 13
                    },
                    "indices" : 14,
                    "material" : 1
                }
            ]
        },
        {
            "name" : "Cone.004",
            "primitives" : [
                {
                    "attributes" : {
                        "POSITION" : 15,
                        "NORMAL" : 16,
                        "TEXCOORD_0" : 17
                    },
                    "indices" : 14,
                    "material" : 1
                }
            ]
        }
    ],
    "accessors" : [
        {
            "bufferView" : 0,
            "componentType" : 5126,
            "count" : 1165,
            "max" : [
                0.5146472454071045,
                0.008040430955588818,
                2.025865077972412
            ],
            "min" : [
                -0.5095357894897461,
                -0.14733314514160156,
                -2.0258660316467285
            ],
            "type" : "VEC3"
        },
        {
            "bufferView" : 1,
            "componentType" : 5126,
            "count" : 1165,
            "type" : "VEC3"
        },
        {
            "bufferView" : 2,
            "componentType" : 5126,
            "count" : 1165,
            "type" : "VEC2"
        },
        {
            "bufferView" : 3,
            "componentType" : 5123,
            "count" : 6306,
            "type" : "SCALAR"
        },
        {
            "bufferView" : 4,
            "componentType" : 5126,
            "count" : 76,
            "max" : [
                0.4705098867416382,
                0.0016069412231445312,
                2.025865077972412
            ],
            "min" : [
                -0.5095357894897461,
                -0.0009045600891113281,
                -2.0258660316467285
            ],
            "type" : "VEC3"
        },
        {
            "bufferView" : 5,
            "componentType" : 5123,
            "count" : 122,
            "type" : "SCALAR"
        },
        {
            "bufferView" : 6,
            "componentType" : 5126,
            "count" : 6,
            "max" : [
                -0.39152252674102783,
                0.0007910728454589844,
                1.2770957946777344
            ],
            "min" : [
                -0.503974199295044,
                0.0006227493286132812,
                -1.2770955562591553
            ],
            "type" : "VEC3"
        },
        {
            "bufferView" : 7,
            "componentType" : 5126,
            "count" : 1136,
            "max" : [
                0.5089206695556641,
                0.14733505249023438,
                2.0230648517608643
            ],
            "min" : [
                -0.5087413787841797,
                -0.008809453807771206,
                -2.0230655670166016
            ],
            "type" : "VEC3"
        },
        {
            "bufferView" : 8,
            "componentType" : 5126,
            "count" : 1136,
            "type" : "VEC3"
        },
        {
            "bufferView" : 9,
            "componentType" : 5126,
            "count" : 1136,
            "type" : "VEC2"
        },
        {
            "bufferView" : 10,
            "componentType" : 5123,
            "count" : 6144,
            "type" : "SCALAR"
        },
        {
            "bufferView" : 11,
            "componentType" : 5126,
            "count" : 65,
            "max" : [
                0.07500000298023224,
                2.5,
                0.07500000298023224
            ],
            "min" : [
                -0.07500000298023224,
                -2.5,
                -0.07500000298023224
            ],
            "type" : "VEC3"
        },
        {
            "bufferView" : 12,
            "componentType" : 5126,
            "count" : 65,
            "type" : "VEC3"
        },
        {
            "bufferView" : 13,
            "componentType" : 5126,
            "count" : 65,
            "type" : "VEC2"
        },
        {
            "bufferView" : 14,
            "componentType" : 5123,
            "count" : 186,
            "type" : "SCALAR"
        },
        {
            "bufferView" : 15,
            "componentType" : 5126,
            "count" : 65,
            "max" : [
                0.07500000298023224,
                2.5,
                0.07500000298023224
            ],
            "min" : [
                -0.07500000298023224,
                -2.5,
                -0.07500000298023224
            ],
            "type" : "VEC3"
        },
        {
            "bufferView" : 16,
            "componentType" : 5126,
            "count" : 65,
            "type" : "VEC3"
        },
        {
            "bufferView" : 17,
            "componentType" : 5126,
            "count" : 65,
            "type" : "VEC2"
        },
        {
            "bufferView" : 18,
            "componentType" : 5126,
            "count" : 150,
            "max" : [
                5
            ],
            "min" : [
                0.03333333333333333
            ],
            "type" : "SCALAR"
        },
        {
            "bufferView" : 19,
            "componentType" : 5126,
            "count" : 150,
            "type" : "VEC3"
        },
        {
            "bufferView" : 20,
            "componentType" : 5126,
            "count" : 200,
            "max" : [
                6.666666666666667
            ],
            "min" : [
                0.03333333333333333
            ],
            "type" : "SCALAR"
        },
        {
            "bufferView" : 21,
            "componentType" : 5126,
            "count" : 200,
            "type" : "VEC3"
        },
        {
            "bufferView" : 22,
            "componentType" : 5126,
            "count" : 250,
            "max" : [
                8.333333333333334
            ],
            "min" : [
                0.03333333333333333
            ],
            "type" : "SCALAR"
        },
        {
            "bufferView" : 23,
            "componentType" : 5126,
            "count" : 250,
            "type" : "VEC4"
        },
        {
            "bufferView" : 24,
            "componentType" : 5126,
            "count" : 150,
            "type" : "VEC3"
        },
        {
            "bufferView" : 25,
            "componentType" : 5126,
            "count" : 250,
            "type" : "VEC4"
        },
        {
            "bufferView" : 26,
            "componentType" : 5126,
            "count" : 150,
            "type" : "VEC3"
        }
    ],
    "bufferViews" : [
        {
            "buffer" : 0,
            "byteLength" : 13980,
            "byteOffset" : 0
        },
        {
            "buffer" : 0,
            "byteLength" : 13980,
            "byteOffset" : 13980
        },
        {
            "buffer" : 0,
            "byteLength" : 9320,
            "byteOffset" : 27960
        },
        {
            "buffer" : 0,
            "byteLength" : 12612,
            "byteOffset" : 37280
        },
        {
            "buffer" : 0,
            "byteLength" : 912,
            "byteOffset" : 49892
        },
        {
            "buffer" : 0,
            "byteLength" : 244,
            "byteOffset" : 50804
        },
        {
            "buffer" : 0,
            "byteLength" : 72,
            "byteOffset" : 51048
        },
        {
            "buffer" : 0,
            "byteLength" : 13632,
            "byteOffset" : 51120
        },
        {
            "buffer" : 0,
            "byteLength" : 13632,
            "byteOffset" : 64752
        },
        {
            "buffer" : 0,
            "byteLength" : 9088,
            "byteOffset" : 78384
        },
        {
            "buffer" : 0,
            "byteLength" : 12288,
            "byteOffset" : 87472
        },
        {
            "buffer" : 0,
            "byteLength" : 780,
            "byteOffset" : 99760
        },
        {
            "buffer" : 0,
            "byteLength" : 780,
            "byteOffset" : 100540
        },
        {
            "buffer" : 0,
            "byteLength" : 520,
            "byteOffset" : 101320
        },
        {
            "buffer" : 0,
            "byteLength" : 372,
            "byteOffset" : 101840
        },
        {
            "buffer" : 0,
            "byteLength" : 780,
            "byteOffset" : 102212
        },
        {
            "buffer" : 0,
            "byteLength" : 780,
            "byteOffset" : 102992
        },
        {
            "buffer" : 0,
            "byteLength" : 520,
            "byteOffset" : 103772
        },
        {
            "buffer" : 0,
            "byteLength" : 600,
            "byteOffset" : 104292
        },
        {
            "buffer" : 0,
            "byteLength" : 1800,
            "byteOffset" : 104892
        },
        {
            "buffer" : 0,
            "byteLength" : 800,
            "byteOffset" : 106692
        },
        {
            "buffer" : 0,
            "byteLength" : 2400,
            "byteOffset" : 107492
        },
        {
            "buffer" : 0,
            "byteLength" : 1000,
            "byteOffset" : 109892
        },
        {
            "buffer" : 0,
            "byteLength" : 4000,
            "byteOffset" : 110892
        },
        {
            "buffer" : 0,
            "byteLength" : 1800,
            "byteOffset" : 114892
        },
        {
            "buffer" : 0,
            "byteLength" : 4000,
            "byteOffset" : 116692
        },
        {
            "buffer" : 0,
            "byteLength" : 1800,
            "byteOffset" : 120692
        }
    ],
    "buffers" : [
        {
            "byteLength" : 122492,
            "uri" : "data:application/octet-stream;base64,"
        }
    ]
}
