{
    "asset" : {
        "generator" : "Khronos glTF Blender I/O v1.6.16",
        "version" : "2.0"
    },
    "scene" : 0,
    "scenes" : [
        {
            "extras" : {
                "glTF2ExportSettings" : {
                    "export_apply" : 1,
                    "export_draco_mesh_compression_enable" : 0,
                    "export_extras" : 1,
                    "export_format" : "GLTF_SEPARATE",
                    "export_image_format" : "AUTO",
                    "export_morph" : 0,
                    "export_skins" : 0,
                    "export_texture_dir" : "textures",
                    "use_active_collection" : 1,
                    "use_mesh_edges" : 1,
                    "use_mesh_vertices" : 1,
                    "use_renderable" : 0,
                    "use_selection" : 0,
                    "use_visible" : 0
                }
            },
            "name" : "Scene",
            "nodes" : [
                0,
                1,
                2,
                3
            ]
        }
    ],
    "nodes" : [
        {
            "mesh" : 0,
            "name" : "Sphere..Topp",
            "scale" : [
                1.2266067266464233,
                4.2420125007629395,
                0.30851009488105774
            ]
        },
        {
            "mesh" : 1,
            "name" : "Sphere.Bottom",
            "scale" : [
                1.2266067266464233,
                4.242007732391357,
                0.30851009488105774
            ]
        },
        {
            "mesh" : 2,
            "name" : "Cone",
            "rotation" : [
                0.7071013450622559,
                0.002785278717055917,
                -0.7071013450622559,
                0.002785278717055917
            ],
            "scale" : [
                0.009999999776482582,
                0.009999999776482582,
                0.009999999776482582
            ],
            "translation" : [
                0,
                1.0299999713897705,
                0
            ]
        },
        {
            "mesh" : 3,
            "name" : "Coneb",
            "scale" : [
                0.009999999776482582,
                0.009999999776482582,
                0.009999999776482582
            ],
            "translation" : [
                0,
                -1.0299999713897705,
                0
            ]
        }
    ],
    "animations" : [
        {
            "channels" : [
                {
                    "sampler" : 0,
                    "target" : {
                        "node" : 0,
                        "path" : "translation"
                    }
                },
                {
                    "sampler" : 1,
                    "target" : {
                        "node" : 0,
                        "path" : "rotation"
                    }
                },
                {
                    "sampler" : 2,
                    "target" : {
                        "node" : 0,
                        "path" : "scale"
                    }
                }
            ],
            "name" : "Sphere..ToppAction.001",
            "samplers" : [
                {
                    "input" : 18,
                    "interpolation" : "LINEAR",
                    "output" : 19
                },
                {
                    "input" : 20,
                    "interpolation" : "LINEAR",
                    "output" : 21
                },
                {
                    "input" : 18,
                    "interpolation" : "LINEAR",
                    "output" : 22
                }
            ]
        },
        {
            "channels" : [
                {
                    "sampler" : 0,
                    "target" : {
                        "node" : 1,
                        "path" : "translation"
                    }
                },
                {
                    "sampler" : 1,
                    "target" : {
                        "node" : 1,
                        "path" : "scale"
                    }
                },
                {
                    "sampler" : 2,
                    "target" : {
                        "node" : 1,
                        "path" : "rotation"
                    }
                }
            ],
            "name" : "Sphere.BottomAction",
            "samplers" : [
                {
                    "input" : 18,
                    "interpolation" : "LINEAR",
                    "output" : 23
                },
                {
                    "input" : 18,
                    "interpolation" : "LINEAR",
                    "output" : 24
                },
                {
                    "input" : 18,
                    "interpolation" : "LINEAR",
                    "output" : 25
                }
            ]
        },
        {
            "channels" : [
                {
                    "sampler" : 0,
                    "target" : {
                        "node" : 2,
                        "path" : "scale"
                    }
                },
                {
                    "sampler" : 1,
                    "target" : {
                        "node" : 2,
                        "path" : "translation"
                    }
                }
            ],
            "name" : "ConeAction",
            "samplers" : [
                {
                    "input" : 26,
                    "interpolation" : "LINEAR",
                    "output" : 27
                },
                {
                    "input" : 26,
                    "interpolation" : "LINEAR",
                    "output" : 28
                }
            ]
        },
        {
            "channels" : [
                {
                    "sampler" : 0,
                    "target" : {
                        "node" : 3,
                        "path" : "translation"
                    }
                },
                {
                    "sampler" : 1,
                    "target" : {
                        "node" : 3,
                        "path" : "scale"
                    }
                }
            ],
            "name" : "ConebAction",
            "samplers" : [
                {
                    "input" : 29,
                    "interpolation" : "LINEAR",
                    "output" : 30
                },
                {
                    "input" : 29,
                    "interpolation" : "LINEAR",
                    "output" : 31
                }
            ]
        }
    ],
    "materials" : [
        {
            "doubleSided" : true,
            "name" : "WaTer",
            "pbrMetallicRoughness" : {
                "baseColorFactor" : [
                    0.32314324378967285,
                    0.7083759903907776,
                    0.9046614170074463,
                    1
                ],
                "metallicFactor" : 0.8999999761581421,
                "roughnessFactor" : 0.18199999630451202
            }
        },
        {
            "doubleSided" : true,
            "name" : "Light sabre",
            "pbrMetallicRoughness" : {
                "baseColorFactor" : [
                    0.7454043626785278,
                    0.8227859139442444,
                    0.7991029620170593,
                    0.42397820949554443
                ],
                "metallicFactor" : 0.1634877324104309,
                "roughnessFactor" : 0.5
            }
        }
    ],
    "meshes" : [
        {
            "name" : "Sphere.002",
            "primitives" : [
                {
                    "attributes" : {
                        "POSITION" : 0,
                        "NORMAL" : 1,
                        "TEXCOORD_0" : 2
                    },
                    "indices" : 3,
                    "material" : 0
                }
            ]
        },
        {
            "name" : "Sphere.001",
            "primitives" : [
                {
                    "attributes" : {
                        "POSITION" : 4,
                        "NORMAL" : 5,
                        "TEXCOORD_0" : 6
                    },
                    "indices" : 7,
                    "material" : 0
                },
                {
                    "attributes" : {
                        "POSITION" : 8
                    },
                    "indices" : 9,
                    "material" : 0,
                    "mode" : 1
                },
                {
                    "attributes" : {
                        "POSITION" : 10
                    },
                    "material" : 0,
                    "mode" : 0
                }
            ]
        },
        {
            "name" : "Cone.003",
            "primitives" : [
                {
                    "attributes" : {
                        "POSITION" : 11,
                        "NORMAL" : 12,
                        "TEXCOORD_0" : 13
                    },
                    "indices" : 14,
                    "material" : 1
                }
            ]
        },
        {
            "name" : "Cone.004",
            "primitives" : [
                {
                    "attributes" : {
                        "POSITION" : 15,
                        "NORMAL" : 16,
                        "TEXCOORD_0" : 17
                    },
                    "indices" : 14,
                    "material" : 1
                }
            ]
        }
    ],
    "accessors" : [
        {
            "bufferView" : 0,
            "componentType" : 5126,
            "count" : 1136,
            "max" : [
                0.5089206695556641,
                0.14733505249023438,
                2.0230648517608643
            ],
            "min" : [
                -0.5087413787841797,
                -0.008809453807771206,
                -2.0230655670166016
            ],
            "type" : "VEC3"
        },
        {
            "bufferView" : 1,
            "componentType" : 5126,
            "count" : 1136,
            "type" : "VEC3"
        },
        {
            "bufferView" : 2,
            "componentType" : 5126,
            "count" : 1136,
            "type" : "VEC2"
        },
        {
            "bufferView" : 3,
            "componentType" : 5123,
            "count" : 6144,
            "type" : "SCALAR"
        },
        {
            "bufferView" : 4,
            "componentType" : 5126,
            "count" : 2082,
            "max" : [
                0.5146472454071045,
                0.008040430955588818,
                2.025865077972412
            ],
            "min" : [
                -0.5095357894897461,
                -0.14733314514160156,
                -2.0258660316467285
            ],
            "type" : "VEC3"
        },
        {
            "bufferView" : 5,
            "componentType" : 5126,
            "count" : 2082,
            "type" : "VEC3"
        },
        {
            "bufferView" : 6,
            "componentType" : 5126,
            "count" : 2082,
            "type" : "VEC2"
        },
        {
            "bufferView" : 7,
            "componentType" : 5123,
            "count" : 11796,
            "type" : "SCALAR"
        },
        {
            "bufferView" : 8,
            "componentType" : 5126,
            "count" : 156,
            "max" : [
                0.47561565041542053,
                0.006113809533417225,
                2.025865077972412
            ],
            "min" : [
                -0.5095357894897461,
                -0.011565560474991798,
                -2.0258660316467285
            ],
            "type" : "VEC3"
        },
        {
            "bufferView" : 9,
            "componentType" : 5123,
            "count" : 248,
            "type" : "SCALAR"
        },
        {
            "bufferView" : 10,
            "componentType" : 5126,
            "count" : 12,
            "max" : [
                -0.39152252674102783,
                0.0007910728454589844,
                1.2770957946777344
            ],
            "min" : [
                -0.503974199295044,
                0.0006227493286132812,
                -1.2770955562591553
            ],
            "type" : "VEC3"
        },
        {
            "bufferView" : 11,
            "componentType" : 5126,
            "count" : 65,
            "max" : [
                0.07500000298023224,
                2.5,
                0.0749812200665474
            ],
            "min" : [
                -0.07500000298023224,
                -2.5019872188568115,
                -0.0749812200665474
            ],
            "type" : "VEC3"
        },
        {
            "bufferView" : 12,
            "componentType" : 5126,
            "count" : 65,
            "type" : "VEC3"
        },
        {
            "bufferView" : 13,
            "componentType" : 5126,
            "count" : 65,
            "type" : "VEC2"
        },
        {
            "bufferView" : 14,
            "componentType" : 5123,
            "count" : 186,
            "type" : "SCALAR"
        },
        {
            "bufferView" : 15,
            "componentType" : 5126,
            "count" : 65,
            "max" : [
                0.07500000298023224,
                2.5,
                0.07500000298023224
            ],
            "min" : [
                -0.07500000298023224,
                -2.5,
                -0.07500000298023224
            ],
            "type" : "VEC3"
        },
        {
            "bufferView" : 16,
            "componentType" : 5126,
            "count" : 65,
            "type" : "VEC3"
        },
        {
            "bufferView" : 17,
            "componentType" : 5126,
            "count" : 65,
            "type" : "VEC2"
        },
        {
            "bufferView" : 18,
            "componentType" : 5126,
            "count" : 251,
            "max" : [
                8.366666666666667
            ],
            "min" : [
                0.03333333333333333
            ],
            "type" : "SCALAR"
        },
        {
            "bufferView" : 19,
            "componentType" : 5126,
            "count" : 251,
            "type" : "VEC3"
        },
        {
            "bufferView" : 20,
            "componentType" : 5126,
            "count" : 250,
            "max" : [
                8.333333333333334
            ],
            "min" : [
                0.03333333333333333
            ],
            "type" : "SCALAR"
        },
        {
            "bufferView" : 21,
            "componentType" : 5126,
            "count" : 250,
            "type" : "VEC4"
        },
        {
            "bufferView" : 22,
            "componentType" : 5126,
            "count" : 251,
            "type" : "VEC3"
        },
        {
            "bufferView" : 23,
            "componentType" : 5126,
            "count" : 251,
            "type" : "VEC3"
        },
        {
            "bufferView" : 24,
            "componentType" : 5126,
            "count" : 251,
            "type" : "VEC3"
        },
        {
            "bufferView" : 25,
            "componentType" : 5126,
            "count" : 251,
            "type" : "VEC4"
        },
        {
            "bufferView" : 26,
            "componentType" : 5126,
            "count" : 102,
            "max" : [
                8.366666666666667
            ],
            "min" : [
                5
            ],
            "type" : "SCALAR"
        },
        {
            "bufferView" : 27,
            "componentType" : 5126,
            "count" : 102,
            "type" : "VEC3"
        },
        {
            "bufferView" : 28,
            "componentType" : 5126,
            "count" : 102,
            "type" : "VEC3"
        },
        {
            "bufferView" : 29,
            "componentType" : 5126,
            "count" : 101,
            "max" : [
                8.333333333333334
            ],
            "min" : [
                5
            ],
            "type" : "SCALAR"
        },
        {
            "bufferView" : 30,
            "componentType" : 5126,
            "count" : 101,
            "type" : "VEC3"
        },
        {
            "bufferView" : 31,
            "componentType" : 5126,
            "count" : 101,
            "type" : "VEC3"
        }
    ],
    "bufferViews" : [
        {
            "buffer" : 0,
            "byteLength" : 13632,
            "byteOffset" : 0
        },
        {
            "buffer" : 0,
            "byteLength" : 13632,
            "byteOffset" : 13632
        },
        {
            "buffer" : 0,
            "byteLength" : 9088,
            "byteOffset" : 27264
        },
        {
            "buffer" : 0,
            "byteLength" : 12288,
            "byteOffset" : 36352
        },
        {
            "buffer" : 0,
            "byteLength" : 24984,
            "byteOffset" : 48640
        },
        {
            "buffer" : 0,
            "byteLength" : 24984,
            "byteOffset" : 73624
        },
        {
            "buffer" : 0,
            "byteLength" : 16656,
            "byteOffset" : 98608
        },
        {
            "buffer" : 0,
            "byteLength" : 23592,
            "byteOffset" : 115264
        },
        {
            "buffer" : 0,
            "byteLength" : 1872,
            "byteOffset" : 138856
        },
        {
            "buffer" : 0,
            "byteLength" : 496,
            "byteOffset" : 140728
        },
        {
            "buffer" : 0,
            "byteLength" : 144,
            "byteOffset" : 141224
        },
        {
            "buffer" : 0,
            "byteLength" : 780,
            "byteOffset" : 141368
        },
        {
            "buffer" : 0,
            "byteLength" : 780,
            "byteOffset" : 142148
        },
        {
            "buffer" : 0,
            "byteLength" : 520,
            "byteOffset" : 142928
        },
        {
            "buffer" : 0,
            "byteLength" : 372,
            "byteOffset" : 143448
        },
        {
            "buffer" : 0,
            "byteLength" : 780,
            "byteOffset" : 143820
        },
        {
            "buffer" : 0,
            "byteLength" : 780,
            "byteOffset" : 144600
        },
        {
            "buffer" : 0,
            "byteLength" : 520,
            "byteOffset" : 145380
        },
        {
            "buffer" : 0,
            "byteLength" : 1004,
            "byteOffset" : 145900
        },
        {
            "buffer" : 0,
            "byteLength" : 3012,
            "byteOffset" : 146904
        },
        {
            "buffer" : 0,
            "byteLength" : 1000,
            "byteOffset" : 149916
        },
        {
            "buffer" : 0,
            "byteLength" : 4000,
            "byteOffset" : 150916
        },
        {
            "buffer" : 0,
            "byteLength" : 3012,
            "byteOffset" : 154916
        },
        {
            "buffer" : 0,
            "byteLength" : 3012,
            "byteOffset" : 157928
        },
        {
            "buffer" : 0,
            "byteLength" : 3012,
            "byteOffset" : 160940
        },
        {
            "buffer" : 0,
            "byteLength" : 4016,
            "byteOffset" : 163952
        },
        {
            "buffer" : 0,
            "byteLength" : 408,
            "byteOffset" : 167968
        },
        {
            "buffer" : 0,
            "byteLength" : 1224,
            "byteOffset" : 168376
        },
        {
            "buffer" : 0,
            "byteLength" : 1224,
            "byteOffset" : 169600
        },
        {
            "buffer" : 0,
            "byteLength" : 404,
            "byteOffset" : 170824
        },
        {
            "buffer" : 0,
            "byteLength" : 1212,
            "byteOffset" : 171228
        },
        {
            "buffer" : 0,
            "byteLength" : 1212,
            "byteOffset" : 172440
        }
    ],
    "buffers" : [
        {
            "byteLength" : 173652,
            "uri" : "universalAxion3.bin"
        }
    ]
}
