{
    "asset" : {
        "generator" : "Khronos glTF Blender I/O v1.6.16",
        "version" : "2.0"
    },
    "scene" : 0,
    "scenes" : [
        {
            "extras" : {
                "glTF2ExportSettings" : {
                    "export_apply" : 1,
                    "export_draco_mesh_compression_enable" : 0,
                    "export_extras" : 1,
                    "export_format" : "GLTF_SEPARATE",
                    "export_image_format" : "AUTO",
                    "export_morph" : 0,
                    "export_skins" : 0,
                    "export_texture_dir" : "textures",
                    "use_active_collection" : 1,
                    "use_mesh_edges" : 1,
                    "use_mesh_vertices" : 1,
                    "use_renderable" : 0,
                    "use_selection" : 0,
                    "use_visible" : 0
                }
            },
            "name" : "Scene",
            "nodes" : [
                0,
                1
            ]
        }
    ],
    "nodes" : [
        {
            "mesh" : 0,
            "name" : "Cone",
            "rotation" : [
                0.7071013450622559,
                0.002785278717055917,
                -0.7071013450622559,
                0.002785278717055917
            ],
            "scale" : [
                0.009999999776482582,
                0.009999999776482582,
                0.009999999776482582
            ],
            "translation" : [
                0,
                1.0299999713897705,
                0
            ]
        },
        {
            "mesh" : 1,
            "name" : "Coneb",
            "scale" : [
                0.009999999776482582,
                0.009999999776482582,
                0.009999999776482582
            ],
            "translation" : [
                0,
                -1.0299999713897705,
                0
            ]
        }
    ],
    "animations" : [
        {
            "channels" : [
                {
                    "sampler" : 0,
                    "target" : {
                        "node" : 0,
                        "path" : "scale"
                    }
                },
                {
                    "sampler" : 1,
                    "target" : {
                        "node" : 0,
                        "path" : "translation"
                    }
                }
            ],
            "name" : "ConeAction",
            "samplers" : [
                {
                    "input" : 7,
                    "interpolation" : "LINEAR",
                    "output" : 8
                },
                {
                    "input" : 7,
                    "interpolation" : "LINEAR",
                    "output" : 9
                }
            ]
        },
        {
            "channels" : [
                {
                    "sampler" : 0,
                    "target" : {
                        "node" : 1,
                        "path" : "translation"
                    }
                },
                {
                    "sampler" : 1,
                    "target" : {
                        "node" : 1,
                        "path" : "scale"
                    }
                }
            ],
            "name" : "ConebAction",
            "samplers" : [
                {
                    "input" : 10,
                    "interpolation" : "LINEAR",
                    "output" : 11
                },
                {
                    "input" : 10,
                    "interpolation" : "LINEAR",
                    "output" : 12
                }
            ]
        }
    ],
    "materials" : [
        {
            "doubleSided" : true,
            "name" : "Light sabre",
            "pbrMetallicRoughness" : {
                "baseColorFactor" : [
                    0.7454043626785278,
                    0.8227859139442444,
                    0.7991029620170593,
                    0.42397820949554443
                ],
                "metallicFactor" : 0.1634877324104309,
                "roughnessFactor" : 0.5
            }
        }
    ],
    "meshes" : [
        {
            "name" : "Cone.003",
            "primitives" : [
                {
                    "attributes" : {
                        "POSITION" : 0,
                        "NORMAL" : 1,
                        "TEXCOORD_0" : 2
                    },
                    "indices" : 3,
                    "material" : 0
                }
            ]
        },
        {
            "name" : "Cone.004",
            "primitives" : [
                {
                    "attributes" : {
                        "POSITION" : 4,
                        "NORMAL" : 5,
                        "TEXCOORD_0" : 6
                    },
                    "indices" : 3,
                    "material" : 0
                }
            ]
        }
    ],
    "accessors" : [
        {
            "bufferView" : 0,
            "componentType" : 5126,
            "count" : 65,
            "max" : [
                0.07500000298023224,
                2.5,
                0.0749812200665474
            ],
            "min" : [
                -0.07500000298023224,
                -2.5019872188568115,
                -0.0749812200665474
            ],
            "type" : "VEC3"
        },
        {
            "bufferView" : 1,
            "componentType" : 5126,
            "count" : 65,
            "type" : "VEC3"
        },
        {
            "bufferView" : 2,
            "componentType" : 5126,
            "count" : 65,
            "type" : "VEC2"
        },
        {
            "bufferView" : 3,
            "componentType" : 5123,
            "count" : 186,
            "type" : "SCALAR"
        },
        {
            "bufferView" : 4,
            "componentType" : 5126,
            "count" : 65,
            "max" : [
                0.07500000298023224,
                2.5,
                0.07500000298023224
            ],
            "min" : [
                -0.07500000298023224,
                -2.5,
                -0.07500000298023224
            ],
            "type" : "VEC3"
        },
        {
            "bufferView" : 5,
            "componentType" : 5126,
            "count" : 65,
            "type" : "VEC3"
        },
        {
            "bufferView" : 6,
            "componentType" : 5126,
            "count" : 65,
            "type" : "VEC2"
        },
        {
            "bufferView" : 7,
            "componentType" : 5126,
            "count" : 102,
            "max" : [
                8.366666666666667
            ],
            "min" : [
                5
            ],
            "type" : "SCALAR"
        },
        {
            "bufferView" : 8,
            "componentType" : 5126,
            "count" : 102,
            "type" : "VEC3"
        },
        {
            "bufferView" : 9,
            "componentType" : 5126,
            "count" : 102,
            "type" : "VEC3"
        },
        {
            "bufferView" : 10,
            "componentType" : 5126,
            "count" : 101,
            "max" : [
                8.333333333333334
            ],
            "min" : [
                5
            ],
            "type" : "SCALAR"
        },
        {
            "bufferView" : 11,
            "componentType" : 5126,
            "count" : 101,
            "type" : "VEC3"
        },
        {
            "bufferView" : 12,
            "componentType" : 5126,
            "count" : 101,
            "type" : "VEC3"
        }
    ],
    "bufferViews" : [
        {
            "buffer" : 0,
            "byteLength" : 780,
            "byteOffset" : 0
        },
        {
            "buffer" : 0,
            "byteLength" : 780,
            "byteOffset" : 780
        },
        {
            "buffer" : 0,
            "byteLength" : 520,
            "byteOffset" : 1560
        },
        {
            "buffer" : 0,
            "byteLength" : 372,
            "byteOffset" : 2080
        },
        {
            "buffer" : 0,
            "byteLength" : 780,
            "byteOffset" : 2452
        },
        {
            "buffer" : 0,
            "byteLength" : 780,
            "byteOffset" : 3232
        },
        {
            "buffer" : 0,
            "byteLength" : 520,
            "byteOffset" : 4012
        },
        {
            "buffer" : 0,
            "byteLength" : 408,
            "byteOffset" : 4532
        },
        {
            "buffer" : 0,
            "byteLength" : 1224,
            "byteOffset" : 4940
        },
        {
            "buffer" : 0,
            "byteLength" : 1224,
            "byteOffset" : 6164
        },
        {
            "buffer" : 0,
            "byteLength" : 404,
            "byteOffset" : 7388
        },
        {
            "buffer" : 0,
            "byteLength" : 1212,
            "byteOffset" : 7792
        },
        {
            "buffer" : 0,
            "byteLength" : 1212,
            "byteOffset" : 9004
        }
    ],
    "buffers" : [
        {
            "byteLength" : 10216,
            "uri" : "universalAxion2.bin"
        }
    ]
}
