{
    "asset" : {
        "generator" : "Khronos glTF Blender I/O v1.6.16",
        "version" : "2.0"
    },
    "scene" : 0,
    "scenes" : [
        {
            "extras" : {
                "glTF2ExportSettings" : {
                    "export_apply" : 1,
                    "export_draco_mesh_compression_enable" : 0,
                    "export_extras" : 1,
                    "export_format" : "GLTF_SEPARATE",
                    "export_image_format" : "JPEG",
                    "export_morph" : 0,
                    "export_skins" : 0,
                    "use_active_collection" : 1,
                    "use_renderable" : 0,
                    "use_selection" : 0,
                    "use_visible" : 0
                }
            },
            "name" : "Scene",
            "nodes" : [
                0
            ]
        }
    ],
    "nodes" : [
        {
            "mesh" : 0,
            "name" : "Sphere.Bottom",
            "scale" : [
                1.2266067266464233,
                4.242007732391357,
                0.30851009488105774
            ]
        }
    ],
    "animations" : [
        {
            "channels" : [
                {
                    "sampler" : 0,
                    "target" : {
                        "node" : 0,
                        "path" : "translation"
                    }
                },
                {
                    "sampler" : 1,
                    "target" : {
                        "node" : 0,
                        "path" : "scale"
                    }
                },
                {
                    "sampler" : 2,
                    "target" : {
                        "node" : 0,
                        "path" : "rotation"
                    }
                }
            ],
            "name" : "Sphere.BottomAction",
            "samplers" : [
                {
                    "input" : 4,
                    "interpolation" : "LINEAR",
                    "output" : 5
                },
                {
                    "input" : 6,
                    "interpolation" : "LINEAR",
                    "output" : 7
                },
                {
                    "input" : 8,
                    "interpolation" : "LINEAR",
                    "output" : 9
                }
            ]
        }
    ],
    "materials" : [
        {
            "doubleSided" : true,
            "name" : "WaTer",
            "pbrMetallicRoughness" : {
                "baseColorFactor" : [
                    0.32434800267219543,
                    0.7105652093887329,
                    0.906000018119812,
                    1
                ],
                "metallicFactor" : 0.8999999761581421,
                "roughnessFactor" : 0.18199999630451202
            }
        }
    ],
    "meshes" : [
        {
            "name" : "Sphere.001",
            "primitives" : [
                {
                    "attributes" : {
                        "POSITION" : 0,
                        "NORMAL" : 1,
                        "TEXCOORD_0" : 2
                    },
                    "indices" : 3,
                    "material" : 0
                }
            ]
        }
    ],
    "accessors" : [
        {
            "bufferView" : 0,
            "componentType" : 5126,
            "count" : 2301,
            "max" : [
                0.5146472454071045,
                0.17296642065048218,
                2.025865077972412
            ],
            "min" : [
                -0.5095357894897461,
                -0.14733314514160156,
                -2.0258660316467285
            ],
            "type" : "VEC3"
        },
        {
            "bufferView" : 1,
            "componentType" : 5126,
            "count" : 2301,
            "type" : "VEC3"
        },
        {
            "bufferView" : 2,
            "componentType" : 5126,
            "count" : 2301,
            "type" : "VEC2"
        },
        {
            "bufferView" : 3,
            "componentType" : 5123,
            "count" : 12450,
            "type" : "SCALAR"
        },
        {
            "bufferView" : 4,
            "componentType" : 5126,
            "count" : 150,
            "max" : [
                5
            ],
            "min" : [
                0.03333333333333333
            ],
            "type" : "SCALAR"
        },
        {
            "bufferView" : 5,
            "componentType" : 5126,
            "count" : 150,
            "type" : "VEC3"
        },
        {
            "bufferView" : 6,
            "componentType" : 5126,
            "count" : 200,
            "max" : [
                6.666666666666667
            ],
            "min" : [
                0.03333333333333333
            ],
            "type" : "SCALAR"
        },
        {
            "bufferView" : 7,
            "componentType" : 5126,
            "count" : 200,
            "type" : "VEC3"
        },
        {
            "bufferView" : 8,
            "componentType" : 5126,
            "count" : 250,
            "max" : [
                8.333333333333334
            ],
            "min" : [
                0.03333333333333333
            ],
            "type" : "SCALAR"
        },
        {
            "bufferView" : 9,
            "componentType" : 5126,
            "count" : 250,
            "type" : "VEC4"
        }
    ],
    "bufferViews" : [
        {
            "buffer" : 0,
            "byteLength" : 27612,
            "byteOffset" : 0
        },
        {
            "buffer" : 0,
            "byteLength" : 27612,
            "byteOffset" : 27612
        },
        {
            "buffer" : 0,
            "byteLength" : 18408,
            "byteOffset" : 55224
        },
        {
            "buffer" : 0,
            "byteLength" : 24900,
            "byteOffset" : 73632
        },
        {
            "buffer" : 0,
            "byteLength" : 600,
            "byteOffset" : 98532
        },
        {
            "buffer" : 0,
            "byteLength" : 1800,
            "byteOffset" : 99132
        },
        {
            "buffer" : 0,
            "byteLength" : 800,
            "byteOffset" : 100932
        },
        {
            "buffer" : 0,
            "byteLength" : 2400,
            "byteOffset" : 101732
        },
        {
            "buffer" : 0,
            "byteLength" : 1000,
            "byteOffset" : 104132
        },
        {
            "buffer" : 0,
            "byteLength" : 4000,
            "byteOffset" : 105132
        }
    ],
    "buffers" : [
        {
            "byteLength" : 109132,
            "uri" : "universalAxion8.bin"
        }
    ]
}
