{
    "asset" : {
        "generator" : "Khronos glTF Blender I/O v1.6.16",
        "version" : "2.0"
    },
    "scene" : 0,
    "scenes" : [
        {
            "extras" : {
                "glTF2ExportSettings" : {
                    "export_apply" : 1,
                    "export_draco_mesh_compression_enable" : 0,
                    "export_extras" : 1,
                    "export_format" : "GLTF_EMBEDDED",
                    "export_image_format" : "JPEG",
                    "export_morph" : 0,
                    "export_skins" : 0,
                    "use_active_collection" : 1,
                    "use_renderable" : 0,
                    "use_selection" : 0,
                    "use_visible" : 0
                }
            },
            "name" : "Scene",
            "nodes" : [
                0,
                1
            ]
        }
    ],
    "nodes" : [
        {
            "mesh" : 0,
            "name" : "Sphere.Bottom",
            "scale" : [
                1.2266067266464233,
                4.242007732391357,
                0.30851009488105774
            ]
        },
        {
            "mesh" : 1,
            "name" : "Sphere..Topp",
            "scale" : [
                1.2266067266464233,
                4.2420125007629395,
                0.30851009488105774
            ]
        }
    ],
    "animations" : [
        {
            "channels" : [
                {
                    "sampler" : 0,
                    "target" : {
                        "node" : 0,
                        "path" : "translation"
                    }
                },
                {
                    "sampler" : 1,
                    "target" : {
                        "node" : 0,
                        "path" : "scale"
                    }
                },
                {
                    "sampler" : 2,
                    "target" : {
                        "node" : 0,
                        "path" : "rotation"
                    }
                }
            ],
            "name" : "Sphere.BottomAction",
            "samplers" : [
                {
                    "input" : 8,
                    "interpolation" : "LINEAR",
                    "output" : 9
                },
                {
                    "input" : 10,
                    "interpolation" : "LINEAR",
                    "output" : 11
                },
                {
                    "input" : 12,
                    "interpolation" : "LINEAR",
                    "output" : 13
                }
            ]
        },
        {
            "channels" : [
                {
                    "sampler" : 0,
                    "target" : {
                        "node" : 1,
                        "path" : "translation"
                    }
                },
                {
                    "sampler" : 1,
                    "target" : {
                        "node" : 1,
                        "path" : "rotation"
                    }
                },
                {
                    "sampler" : 2,
                    "target" : {
                        "node" : 1,
                        "path" : "scale"
                    }
                }
            ],
            "name" : "Sphere..ToppAction.001",
            "samplers" : [
                {
                    "input" : 8,
                    "interpolation" : "LINEAR",
                    "output" : 14
                },
                {
                    "input" : 12,
                    "interpolation" : "LINEAR",
                    "output" : 15
                },
                {
                    "input" : 8,
                    "interpolation" : "LINEAR",
                    "output" : 16
                }
            ]
        }
    ],
    "materials" : [
        {
            "doubleSided" : true,
            "name" : "WaTer",
            "pbrMetallicRoughness" : {
                "baseColorFactor" : [
                    0.32434800267219543,
                    0.7105652093887329,
                    0.906000018119812,
                    1
                ],
                "metallicFactor" : 0.8999999761581421,
                "roughnessFactor" : 0.18199999630451202
            }
        }
    ],
    "meshes" : [
        {
            "name" : "Sphere.001",
            "primitives" : [
                {
                    "attributes" : {
                        "POSITION" : 0,
                        "NORMAL" : 1,
                        "TEXCOORD_0" : 2
                    },
                    "indices" : 3,
                    "material" : 0
                }
            ]
        },
        {
            "name" : "Sphere.002",
            "primitives" : [
                {
                    "attributes" : {
                        "POSITION" : 4,
                        "NORMAL" : 5,
                        "TEXCOORD_0" : 6
                    },
                    "indices" : 7,
                    "material" : 0
                }
            ]
        }
    ],
    "accessors" : [
        {
            "bufferView" : 0,
            "componentType" : 5126,
            "count" : 1165,
            "max" : [
                0.5146472454071045,
                0.008040430955588818,
                2.025865077972412
            ],
            "min" : [
                -0.5095357894897461,
                -0.14733314514160156,
                -2.0258660316467285
            ],
            "type" : "VEC3"
        },
        {
            "bufferView" : 1,
            "componentType" : 5126,
            "count" : 1165,
            "type" : "VEC3"
        },
        {
            "bufferView" : 2,
            "componentType" : 5126,
            "count" : 1165,
            "type" : "VEC2"
        },
        {
            "bufferView" : 3,
            "componentType" : 5123,
            "count" : 6306,
            "type" : "SCALAR"
        },
        {
            "bufferView" : 4,
            "componentType" : 5126,
            "count" : 1136,
            "max" : [
                0.5089206695556641,
                0.14733505249023438,
                2.0230648517608643
            ],
            "min" : [
                -0.5087413787841797,
                -0.008809453807771206,
                -2.0230655670166016
            ],
            "type" : "VEC3"
        },
        {
            "bufferView" : 5,
            "componentType" : 5126,
            "count" : 1136,
            "type" : "VEC3"
        },
        {
            "bufferView" : 6,
            "componentType" : 5126,
            "count" : 1136,
            "type" : "VEC2"
        },
        {
            "bufferView" : 7,
            "componentType" : 5123,
            "count" : 6144,
            "type" : "SCALAR"
        },
        {
            "bufferView" : 8,
            "componentType" : 5126,
            "count" : 150,
            "max" : [
                5
            ],
            "min" : [
                0.03333333333333333
            ],
            "type" : "SCALAR"
        },
        {
            "bufferView" : 9,
            "componentType" : 5126,
            "count" : 150,
            "type" : "VEC3"
        },
        {
            "bufferView" : 10,
            "componentType" : 5126,
            "count" : 200,
            "max" : [
                6.666666666666667
            ],
            "min" : [
                0.03333333333333333
            ],
            "type" : "SCALAR"
        },
        {
            "bufferView" : 11,
            "componentType" : 5126,
            "count" : 200,
            "type" : "VEC3"
        },
        {
            "bufferView" : 12,
            "componentType" : 5126,
            "count" : 250,
            "max" : [
                8.333333333333334
            ],
            "min" : [
                0.03333333333333333
            ],
            "type" : "SCALAR"
        },
        {
            "bufferView" : 13,
            "componentType" : 5126,
            "count" : 250,
            "type" : "VEC4"
        },
        {
            "bufferView" : 14,
            "componentType" : 5126,
            "count" : 150,
            "type" : "VEC3"
        },
        {
            "bufferView" : 15,
            "componentType" : 5126,
            "count" : 250,
            "type" : "VEC4"
        },
        {
            "bufferView" : 16,
            "componentType" : 5126,
            "count" : 150,
            "type" : "VEC3"
        }
    ],
    "bufferViews" : [
        {
            "buffer" : 0,
            "byteLength" : 13980,
            "byteOffset" : 0
        },
        {
            "buffer" : 0,
            "byteLength" : 13980,
            "byteOffset" : 13980
        },
        {
            "buffer" : 0,
            "byteLength" : 9320,
            "byteOffset" : 27960
        },
        {
            "buffer" : 0,
            "byteLength" : 12612,
            "byteOffset" : 37280
        },
        {
            "buffer" : 0,
            "byteLength" : 13632,
            "byteOffset" : 49892
        },
        {
            "buffer" : 0,
            "byteLength" : 13632,
            "byteOffset" : 63524
        },
        {
            "buffer" : 0,
            "byteLength" : 9088,
            "byteOffset" : 77156
        },
        {
            "buffer" : 0,
            "byteLength" : 12288,
            "byteOffset" : 86244
        },
        {
            "buffer" : 0,
            "byteLength" : 600,
            "byteOffset" : 98532
        },
        {
            "buffer" : 0,
            "byteLength" : 1800,
            "byteOffset" : 99132
        },
        {
            "buffer" : 0,
            "byteLength" : 800,
            "byteOffset" : 100932
        },
        {
            "buffer" : 0,
            "byteLength" : 2400,
            "byteOffset" : 101732
        },
        {
            "buffer" : 0,
            "byteLength" : 1000,
            "byteOffset" : 104132
        },
        {
            "buffer" : 0,
            "byteLength" : 4000,
            "byteOffset" : 105132
        },
        {
            "buffer" : 0,
            "byteLength" : 1800,
            "byteOffset" : 109132
        },
        {
            "buffer" : 0,
            "byteLength" : 4000,
            "byteOffset" : 110932
        },
        {
            "buffer" : 0,
            "byteLength" : 1800,
            "byteOffset" : 114932
        }
    ],
    "buffers" : [
        {
            "byteLength" : 116732,
            "uri" : "data:application/octet-stream;base64,"
        }
    ]
}
