{
    "asset" : {
        "generator" : "Khronos glTF Blender I/O v1.6.16",
        "version" : "2.0"
    },
    "extensionsUsed" : [
        "KHR_materials_clearcoat"
    ],
    "scene" : 0,
    "scenes" : [
        {
            "name" : "Scene",
            "nodes" : [
                0
            ]
        }
    ],
    "nodes" : [
        {
            "mesh" : 0,
            "name" : "Sphere top"
        }
    ],
    "animations" : [
        {
            "channels" : [
                {
                    "sampler" : 0,
                    "target" : {
                        "node" : 0,
                        "path" : "translation"
                    }
                },
                {
                    "sampler" : 1,
                    "target" : {
                        "node" : 0,
                        "path" : "rotation"
                    }
                },
                {
                    "sampler" : 2,
                    "target" : {
                        "node" : 0,
                        "path" : "scale"
                    }
                }
            ],
            "name" : "Sphere topAction",
            "samplers" : [
                {
                    "input" : 4,
                    "interpolation" : "LINEAR",
                    "output" : 5
                },
                {
                    "input" : 4,
                    "interpolation" : "LINEAR",
                    "output" : 6
                },
                {
                    "input" : 4,
                    "interpolation" : "LINEAR",
                    "output" : 7
                }
            ]
        }
    ],
    "materials" : [
        {
            "doubleSided" : true,
            "extensions" : {
                "KHR_materials_clearcoat" : {
                    "clearcoatFactor" : 0.18000000715255737,
                    "clearcoatRoughnessFactor" : 0.029999999329447746
                }
            },
            "name" : "UA Surface",
            "pbrMetallicRoughness" : {
                "baseColorFactor" : [
                    0.1809999942779541,
                    17.799999237060547,
                    252,
                    1
                ],
                "metallicFactor" : 0.1627907156944275,
                "roughnessFactor" : 0.27906978130340576
            }
        }
    ],
    "meshes" : [
        {
            "name" : "Sphere",
            "primitives" : [
                {
                    "attributes" : {
                        "POSITION" : 0,
                        "NORMAL" : 1,
                        "TEXCOORD_0" : 2
                    },
                    "indices" : 3,
                    "material" : 0
                }
            ]
        }
    ],
    "accessors" : [
        {
            "bufferView" : 0,
            "componentType" : 5126,
            "count" : 144896,
            "max" : [
                0.9976434111595154,
                0.9975767135620117,
                0.996475100517273
            ],
            "min" : [
                -0.9927735924720764,
                -1.5309112071990967,
                -0.99811851978302
            ],
            "type" : "VEC3"
        },
        {
            "bufferView" : 1,
            "componentType" : 5126,
            "count" : 144896,
            "type" : "VEC3"
        },
        {
            "bufferView" : 2,
            "componentType" : 5126,
            "count" : 144896,
            "type" : "VEC2"
        },
        {
            "bufferView" : 3,
            "componentType" : 5125,
            "count" : 217344,
            "type" : "SCALAR"
        },
        {
            "bufferView" : 4,
            "componentType" : 5126,
            "count" : 150,
            "max" : [
                5
            ],
            "min" : [
                0.03333333333333333
            ],
            "type" : "SCALAR"
        },
        {
            "bufferView" : 5,
            "componentType" : 5126,
            "count" : 150,
            "type" : "VEC3"
        },
        {
            "bufferView" : 6,
            "componentType" : 5126,
            "count" : 150,
            "type" : "VEC4"
        },
        {
            "bufferView" : 7,
            "componentType" : 5126,
            "count" : 150,
            "type" : "VEC3"
        }
    ],
    "bufferViews" : [
        {
            "buffer" : 0,
            "byteLength" : 1738752,
            "byteOffset" : 0
        },
        {
            "buffer" : 0,
            "byteLength" : 1738752,
            "byteOffset" : 1738752
        },
        {
            "buffer" : 0,
            "byteLength" : 1159168,
            "byteOffset" : 3477504
        },
        {
            "buffer" : 0,
            "byteLength" : 869376,
            "byteOffset" : 4636672
        },
        {
            "buffer" : 0,
            "byteLength" : 600,
            "byteOffset" : 5506048
        },
        {
            "buffer" : 0,
            "byteLength" : 1800,
            "byteOffset" : 5506648
        },
        {
            "buffer" : 0,
            "byteLength" : 2400,
            "byteOffset" : 5508448
        },
        {
            "buffer" : 0,
            "byteLength" : 1800,
            "byteOffset" : 5510848
        }
    ],
    "buffers" : [
        {
            "byteLength" : 5512648,
            "uri" : "universalAxion2.bin"
        }
    ]
}
